<svg width="200" height="200" viewBox="44 70 200 200" fill="none" xmlns="http://www.w3.org/2000/svg">
  <title>FinPilot mark</title>
  <desc>Compass-like pilot mark used in the FinPilot brand</desc>

  <circle cx="144" cy="170" r="88" fill="none" stroke="#7C3AED" opacity="0.35"/>
  <circle cx="144" cy="170" r="68" fill="none" stroke="#7C3AED" stroke-width="2.5"/>
  <circle cx="144" cy="170" r="52" fill="#7C3AED" opacity="0.12"/>

  <polygon points="144,102 174,158 144,142 114,158" fill="#7C3AED"/>
  <polygon points="144,142 174,158 144,238 114,158" fill="#A855F7" opacity="0.7"/>
  <polygon points="84,180 144,142 144,162 96,192" fill="#FFFFFF" opacity="0.18"/>
  <polygon points="204,180 144,142 144,162 192,192" fill="#FFFFFF" opacity="0.1"/>

  <circle cx="144" cy="170" r="7" fill="#FFFFFF"/>

  <line x1="144" y1="84" x2="144" y2="98" stroke="#7C3AED" stroke-width="2" stroke-linecap="round"/>
  <line x1="144" y1="242" x2="144" y2="256" stroke="#7C3AED" stroke-width="2" stroke-linecap="round"/>
  <line x1="60" y1="170" x2="74" y2="170" stroke="#7C3AED" stroke-width="2" stroke-linecap="round"/>
  <line x1="214" y1="170" x2="228" y2="170" stroke="#7C3AED" stroke-width="2" stroke-linecap="round"/>
</svg>
