<svg width="100%" viewBox="0 0 690 350" role="img" xmlns="http://www.w3.org/2000/svg">
  <title>FinPilot logo</title>
  <desc>FinPilot brand logo with obsidian background, violet accent, and a stylized pilot/chart icon</desc>

  <rect width="680" height="340" rx="18" fill="#1A1A2E"/>

  <circle cx="144" cy="170" r="88" fill="none" stroke="#7C3AED" opacity="0.35"/>
  <circle cx="144" cy="170" r="68" fill="none" stroke="#7C3AED" stroke-width="2.5"/>
  <circle cx="144" cy="170" r="52" fill="#7C3AED" opacity="0.12"/>

  <polygon points="144,102 174,158 144,142 114,158" fill="#7C3AED"/>
  <polygon points="144,142 174,158 144,238 114,158" fill="#A855F7" opacity="0.7"/>

  <polygon points="84,180 144,142 144,162 96,192" fill="#FFFFFF" opacity="0.18"/>
  <polygon points="204,180 144,142 144,162 192,192" fill="#FFFFFF" opacity="0.1"/>

  <circle cx="144" cy="170" r="7" fill="#FFFFFF"/>

  <line x1="144" y1="84" x2="144" y2="98" stroke="#7C3AED" stroke-width="2" stroke-linecap="round"/>
  <line x1="144" y1="242" x2="144" y2="256" stroke="#7C3AED" stroke-width="2" stroke-linecap="round"/>
  <line x1="60" y1="170" x2="74" y2="170" stroke="#7C3AED" stroke-width="2" stroke-linecap="round"/>
  <line x1="214" y1="170" x2="228" y2="170" stroke="#7C3AED" stroke-width="2" stroke-linecap="round"/>

  <text x="268" y="185" fill="#FFFFFF" font-family="Helvetica Neue, Arial, sans-serif" font-size="52" font-weight="700">Fin</text>
  <text x="358" y="185" fill="#A855F7" font-family="Helvetica Neue, Arial, sans-serif" font-size="52" font-weight="700">Pilot</text>

  <text x="270" y="218" fill="#A855F7" font-family="Helvetica Neue, Arial, sans-serif" font-size="16" font-weight="500">YOUR MONEY CO-PILOT</text>

  <line x1="270" y1="232" x2="580" y2="232" stroke="#7C3AED" stroke-width="1" opacity="0.4"/>
</svg>
